<svg height="512pt" viewBox="0 0 512 512.00036" width="512pt" xmlns="http://www.w3.org/2000/svg" xmlns:xlink="http://www.w3.org/1999/xlink"><linearGradient id="a" gradientTransform="matrix(.387592 0 0 -.387592 -.018847 520.295158)" gradientUnits="userSpaceOnUse" x1="50.6238" x2="1197.246" y1="-16.2205" y2="1130.4016"><stop offset="0" stop-color="#41dfd0"/><stop offset="1" stop-color="#ee83ef"/></linearGradient><path d="m290.113281 0c-122.464843.136719-221.707031 99.378906-221.84375 221.847656v83.882813l-67.785156 194.882812c-1.5625 4.445313.773437 9.316407 5.21875 10.882813 1.90625.667968 3.988281.640625 5.875-.078125l64.371094-24.15625 39.128906 23.472656c2.703125 1.625 6.085937 1.625 8.789063 0l39.113281-23.472656 64.394531 24.15625c.964844.351562 1.984375.535156 3.011719.535156 3.765625.023437 7.085937-2.46875 8.113281-6.089844 119.164062 28.503907 238.871094-44.984375 267.375-164.148437 4.042969-16.902344 6.085938-34.226563 6.085938-51.609375v-68.257813c-.136719-122.46875-99.378907-221.710937-221.847657-221.847656zm-204.78125 281.574219h68.261719v17.066406h-67.867188c-.121093-2.851563-.394531-17.066406-.394531-17.066406zm42.664063-68.261719v9.300781c-2.816406-.492187-5.671875-.75-8.53125-.765625 0-2.882812.289062-5.691406.433594-8.53125h8.097656zm-6.398438-17.0625c1.371094-9.296875 3.511719-18.464844 6.398438-27.40625v27.40625zm30.785156 68.257812h-65.835937c4.625-18.179687 23.117187-29.164062 41.296875-24.539062 12.054688 3.070312 21.46875 12.484375 24.539062 24.539062zm26.808594-153.585937v34.132813h-34.128906v-12.65625c4.707031-7.644532 10.007812-14.910157 15.851562-21.722657.398438.117188.804688.199219 1.214844.246094zm-1.578125-17.0625c.539063-.46875 1.042969-.972656 1.578125-1.433594v1.433594zm1.578125 68.257813v34.132812h-34.128906v-34.132812zm0 51.195312v34.132812h-15.460937c-4.492188-7.742187-10.925781-14.179687-18.667969-18.671874v-15.460938zm-8.53125 85.328125s-.300781-31.351563-.769531-34.132813h9.300781v34.132813zm8.53125 17.0625v14.558594l-5.066406-14.558594zm-110.070312 155.890625-46.542969 17.449219 59.890625-172.175781c.507812-.339844.984375-.726563 1.414062-1.164063h8.609376zm50.34375 21.878906-33.378906-20.027344 23.660156-157.742187h19.4375l23.660156 157.742187zm95.769531-4.847656-45.410156-17.0625-23.390625-155.859375h9.625l59.824218 171.863281c-.242187.339844-.457031.691406-.648437 1.058594zm15.152344-377.703125v34.132813h-34.128907v-34.132813zm-34.128907-17.0625v-14.386719c10.691407-7.023437 22.140626-12.816406 34.128907-17.277344v31.664063zm34.128907 68.257813v34.132812h-34.128907v-34.132812zm0 51.195312v34.132812h-34.128907v-34.132812zm0 51.195312v34.132813h-34.128907v-34.132813zm0 51.195313v34.132813h-34.128907v-34.132813zm0 51.199219v34.128906h-25.597657c-.308593.042969-.617187.109375-.921874.1875l-7.609376-21.894531v-12.425781h34.128907zm-20.648438 51.195312h20.648438v31.859375c-3.761719-1.40625-7.492188-2.9375-11.167969-4.625zm285.160157-127.992187c.195312 112.902343-91.167969 204.585937-204.066407 204.785156-19.34375.03125-38.59375-2.679687-57.175781-8.054687l-6.980469-20.054688c97.574219 35.039062 205.074219-15.65625 240.113281-113.230469 7.308594-20.355469 11.042969-41.816406 11.042969-63.445312v-68.257813c0-103.671875-84.042969-187.71875-187.714843-187.71875-103.675782 0-187.71875 84.046875-187.71875 187.71875v2.984375c-6.296876 2.242188-12.09375 5.691407-17.066407 10.15625v-13.140625c0-113.097656 91.683594-204.78125 204.78125-204.78125 113.097657 0 204.785157 91.683594 204.785157 204.78125zm-247.445313 110.925781v-34.128906h34.128906v34.128906zm34.128906 17.066406v42.429688c-11.523437-.558594-22.960937-2.296875-34.128906-5.1875v-37.246094h34.128906zm-34.128906-68.261718v-34.132813h34.128906v34.132813zm0-51.195313v-34.132813h34.128906v34.132813zm0-51.195313v-34.128906h34.128906v34.128906zm0-51.195312v-34.132812h34.128906v34.132812zm0-51.195312v-34.132813h34.128906v34.132813zm0-51.195313v-34.132813c-.027344-.949218-.21875-1.886718-.5625-2.773437 11.347656-2.96875 22.976563-4.75 34.691406-5.324219v42.230469zm85.324219 17.0625v34.132813h-34.128906v-34.132813zm-34.128906-17.0625v-42.230469c11.71875.570313 23.34375 2.351563 34.691406 5.324219-.34375.886719-.53125 1.824219-.5625 2.773437v34.132813zm34.128906 68.257813v34.132812h-34.128906v-34.132812zm0 51.195312v34.132812h-34.128906v-34.132812zm0 51.195312v34.132813h-34.128906v-34.132813zm0 51.195313v34.132813h-34.128906v-34.132813zm0 51.199219v34.128906h-34.128906v-34.128906zm0 51.195312v37.046875c-11.171875 2.882813-22.605469 4.617188-34.128906 5.179688v-42.226563zm51.195312-307.175781v34.132813h-34.128906v-34.132813zm-34.128906-17.0625v-31.664063c11.988281 4.460938 23.4375 10.253907 34.128906 17.277344v14.386719zm34.128906 68.257813v34.132812h-34.128906v-34.132812zm0 51.195312v34.132812h-34.128906v-34.132812zm0 51.195312v34.132813h-34.128906v-34.132813zm0 51.195313v34.132813h-34.128906v-34.132813zm0 51.199219v34.128906h-34.128906v-34.128906zm0 51.195312v14.382813c-10.691406 7.023437-22.140625 12.820312-34.128906 17.28125v-31.664063zm34.132813-307.175781c.410156-.046875.8125-.128906 1.210937-.246094 5.84375 6.816407 11.144532 14.078125 15.851563 21.722657v12.65625h-34.128907v-34.132813zm-17.066407-17.0625v-1.433594c.539063.460938 1.039063.964844 1.578126 1.433594zm34.128907 68.257813v34.132812h-34.128907v-34.132812zm0 51.195312v34.132812h-34.128907v-34.132812zm0 51.195312v34.132813h-34.128907v-34.132813zm0 51.195313v34.132813h-34.128907v-34.132813zm0 51.199219v12.652344c-4.707031 7.644531-10.007813 14.910156-15.851563 21.722656-.398437-.117188-.800781-.199219-1.210937-.246094h-17.066407v-34.128906zm-32.550781 51.195312c-.539063.46875-1.042969.972656-1.578126 1.429688v-1.429688zm57.714843-204.785156c.144531 2.84375.433594 5.648438.433594 8.535156v25.597656h-8.53125v-34.132812zm-8.097656-17.0625v-27.40625c2.886719 8.941406 5.027344 18.109375 6.398437 27.40625zm8.53125 68.257812v25.597657c0 2.886719-.289063 5.691406-.433594 8.535156h-8.097656v-34.132813zm-2.132813 51.195313c-1.371093 9.296875-3.511718 18.464844-6.398437 27.410156v-27.410156zm0 0" fill="url(#a)"/></svg>