<?xml version="1.0" encoding="iso-8859-1"?>
<!-- Generator: Adobe Illustrator 19.0.0, SVG Export Plug-In . SVG Version: 6.00 Build 0)  -->
<svg version="1.1" id="Capa_1" xmlns="http://www.w3.org/2000/svg" xmlns:xlink="http://www.w3.org/1999/xlink" x="0px" y="0px"
	 viewBox="0 0 455 455" style="enable-background:new 0 0 455 455;" xml:space="preserve">
<path style="fill:#F4D8C3;" d="M99.513,455c-20.708-25.887-31.993-58.049-32-91.2v-75.92c0.014-15.908,6.345-31.159,17.6-42.4l16-16
	c23.431-23.428,61.417-23.428,84.848,0c11.255,11.241,17.586,26.492,17.6,42.4V343c0,20.772-6.737,40.983-19.2,57.6l-4.848,6.4v48
	H99.513z"/>
<path style="fill:#CFAD9A;" d="M115.513,327v88c-17.929-17.928-28.001-42.245-28-67.6V327H115.513z"/>
<path style="fill:#DDDCBC;" d="M243.513,327l164.096-78.048c10.605-5.297,14.908-18.188,9.611-28.793
	c-0.117-0.234-0.238-0.466-0.363-0.695L379.513,151l-152,144v32H243.513z"/>
<path style="fill:#F6F6E7;" d="M243.513,295l144.64-144.64c8.48-8.484,8.48-22.236,0-30.72L274.873,6.36
	c-8.484-8.48-22.236-8.48-30.72,0L211.513,39v256H243.513z"/>
<path style="fill:#DDDCBC;" d="M274.873,6.36c-8.484-8.48-22.236-8.48-30.72,0L211.513,39v256h32l32-32L274.873,6.36z"/>
<path style="fill:#F6F6E7;" d="M115.513,343h-59.92c-11.09,0-20.08-8.99-20.08-20.08V59.08c0-11.09,8.99-20.08,20.08-20.08l0,0
	h167.84c11.09,0,20.08,8.99,20.08,20.08v263.84c0,11.09-8.99,20.08-20.08,20.08h-59.92"/>
<g>
	<path style="fill:#E3472C;" d="M134.825,111l-48,64l48,64l48-64L134.825,111z"/>
	<path style="fill:#E3472C;" d="M61.856,76.653L73.169,65.34l11.314,11.314L73.169,87.967L61.856,76.653z"/>
	<path style="fill:#E3472C;" d="M194.58,305.344l11.314-11.314l11.314,11.314l-11.314,11.314L194.58,305.344z"/>
	<path style="fill:#E3472C;" d="M243.513,158.408l0.592-59.92c0.111-11.327,7.919-21.124,18.936-23.76
		c13.254-3.18,26.577,4.986,29.757,18.24c0.199,0.829,0.355,1.667,0.467,2.512l1.656,12.52l12.488,1.912
		c13.47,2.054,22.725,14.639,20.671,28.109c-0.129,0.847-0.302,1.686-0.519,2.515c-2.855,10.961-12.802,18.573-24.128,18.464
		L243.513,158.408z"/>
</g>
<path style="fill:#B21D48;" d="M275.513,75.104c-4.054-1.208-8.353-1.337-12.472-0.376c-11.017,2.636-18.825,12.433-18.936,23.76
	l-0.592,59.92l32,0.312V75.104z"/>
<path style="fill:#DDDCBC;" d="M155.513,312.944V343h16v-30.056c0.021-13.211-10.671-23.937-23.882-23.958
	c-2.767-0.004-5.514,0.471-8.118,1.406C149.126,293.706,155.561,302.775,155.513,312.944z"/>
<path style="fill:#F4D8C3;" d="M115.513,312.944c-0.001-6.367,2.529-12.474,7.032-16.976c9.372-9.369,24.564-9.369,33.936,0
	c4.503,4.502,7.033,10.609,7.032,16.976V383l3.712,3.712c18.111,18.111,28.286,42.675,28.288,68.288h-80V312.944z"/>
<path style="fill:#CFAD9A;" d="M167.225,386.712L163.513,383v-70.056c0.021-13.211-10.671-23.937-23.882-23.958
	c-2.767-0.004-5.514,0.471-8.118,1.406c9.613,3.314,16.048,12.383,16,22.552V383l3.712,3.712
	c18.111,18.111,28.286,42.675,28.288,68.288h16C195.511,429.387,185.336,404.823,167.225,386.712z"/>
<g>
</g>
<g>
</g>
<g>
</g>
<g>
</g>
<g>
</g>
<g>
</g>
<g>
</g>
<g>
</g>
<g>
</g>
<g>
</g>
<g>
</g>
<g>
</g>
<g>
</g>
<g>
</g>
<g>
</g>
</svg>
