<?xml version="1.0" encoding="utf-8"?>
<!-- Generator: Adobe Illustrator 21.0.2, SVG Export Plug-In . SVG Version: 6.00 Build 0)  -->
<svg version="1.1" xmlns="http://www.w3.org/2000/svg" xmlns:xlink="http://www.w3.org/1999/xlink" x="0px" y="0px"
	 viewBox="0 0 800 800" style="enable-background:new 0 0 800 800;" xml:space="preserve">
<style type="text/css">
	.st0{fill:none;stroke:#FDFFFC;stroke-width:15;stroke-miterlimit:10;}
	.st1{fill:none;stroke:#FDFFFC;stroke-width:3;stroke-miterlimit:10;}
	.st2{fill:#FDFFFC;}
	.st3{fill:none;stroke:#FDFFFC;stroke-width:8;stroke-miterlimit:10;}
	.st4{fill:none;stroke:#FDFFFC;stroke-miterlimit:10;}
	.st5{fill:none;stroke:#FDFFFC;stroke-width:5;stroke-miterlimit:10;}
</style>
<g id="frame">
	<circle class="st0" cx="400" cy="400" r="285"/>
	<circle class="st1" cx="400" cy="400" r="203.6"/>
	<circle class="st1" cx="400" cy="400" r="211.7"/>
</g>
<g id="time">
	<g>
		<g>
			<path class="st2" d="M400.3,178.8l-7.8,0.7c-0.1-0.9-2.2-4.2-6.3-9.9c-4-5.5-6.9-9.2-8.8-11.1l-0.4,0c-1.3,2.1-3.2,6.1-5.7,12.1
				c-2.6,6.3-3.9,10-3.8,11.1l-7.6,0.7c-0.1-0.7,2.1-5.1,6.5-13.1c4.3-7.9,7.1-12.5,8.2-13.8l0-0.4c-1.4-1.3-4.4-4.8-9-10.3
				c-4.7-5.7-7.1-8.9-7.1-9.5l7.7-0.7c0.1,0.7,1.8,3.4,5.1,8c3.3,4.5,5.6,7.4,6.9,8.7l0.4,0c1.1-1.6,2.8-4.9,5-9.9
				c2.2-5,3.3-7.9,3.3-8.6l7.6-0.7c0.1,0.7-1.8,4.1-5.7,10.3c-3.8,6-6.3,9.8-7.7,11.5l0,0.4c2,1.9,5.7,6.2,11,12.8
				C397.4,173.9,400.2,177.8,400.3,178.8z"/>
			<path class="st2" d="M412.8,180l-6.9-0.3c0.7-7.8,1.2-16,1.6-24.7c0.4-8.5,0.5-16,0.4-22.4l6.9,0.3c-0.6,6.6-1.1,14-1.4,22.3
				C413,164,412.8,172.3,412.8,180z"/>
			<path class="st2" d="M432.1,182l-6.8-0.9c1.4-7.7,2.6-15.9,3.7-24.5c1.1-8.5,1.9-15.9,2.3-22.2l6.8,0.9
				c-1.2,6.5-2.3,13.9-3.4,22.1C433.7,166,432.8,174.2,432.1,182z"/>
		</g>
		<g>
			<path class="st2" d="M298.2,203.6l-6.6,4.2c-0.5-0.8-3.9-2.7-10.2-5.8c-6.1-3-10.4-4.9-12.9-5.7l-0.3,0.2
				c-0.2,2.4,0,6.9,0.5,13.3c0.6,6.8,1.1,10.6,1.8,11.6l-6.4,4.1c-0.4-0.6-0.5-5.5-0.3-14.6c0.2-9.1,0.5-14.4,0.9-16l-0.2-0.3
				c-1.9-0.5-6.1-2.2-12.7-5c-6.8-2.9-10.4-4.6-10.7-5.2l6.6-4.2c0.4,0.6,3.1,2.2,8.2,4.7c5,2.5,8.4,4,10.2,4.6l0.3-0.2
				c0.2-1.9,0.2-5.6-0.2-11.1c-0.3-5.5-0.7-8.5-1.1-9.1l6.4-4.1c0.4,0.6,0.3,4.5-0.3,11.8c-0.6,7-1.1,11.6-1.6,13.7l0.2,0.3
				c2.6,0.7,7.9,2.8,15.6,6.3C293.4,200.6,297.7,202.8,298.2,203.6z"/>
			<path class="st2" d="M309.9,198.9l-6.2,2.9c-3-7.2-6.3-14.8-10-22.6c-3.6-7.7-6.9-14.4-10-20l6.2-2.9c2.5,6.1,5.5,12.9,9,20.5
				C302.6,184.6,306.3,192,309.9,198.9z"/>
		</g>
		<g>
			<path class="st2" d="M218.8,272.6l-3.8,6.9c-0.8-0.5-4.7-0.6-11.7-0.3c-6.8,0.2-11.5,0.6-14.1,1.1l-0.2,0.3c1,2.2,3.3,6,6.8,11.5
				c3.7,5.7,6,8.8,7,9.4l-3.7,6.6c-0.6-0.4-3-4.6-7.2-12.7c-4.1-8.1-6.4-12.9-6.8-14.5l-0.3-0.2c-1.9,0.4-6.5,1-13.6,1.6
				c-7.4,0.7-11.3,0.9-11.9,0.5l3.8-6.8c0.6,0.4,3.8,0.4,9.4,0.3c5.6-0.2,9.3-0.4,11.1-0.8l0.2-0.3c-0.7-1.8-2.5-5-5.4-9.7
				c-2.9-4.7-4.7-7.2-5.3-7.5l3.7-6.7c0.6,0.3,2.4,3.8,5.3,10.5c2.8,6.4,4.5,10.7,5.2,12.8l0.3,0.2c2.7-0.6,8.3-1.2,16.8-1.9
				C213.1,272.2,217.9,272.1,218.8,272.6z"/>
		</g>
		<g>
			<path class="st2" d="M180.3,416.7l0.6,6.8c-7.8,0.3-16,0.9-24.7,1.7c-8.5,0.8-15.9,1.6-22.2,2.6l-0.6-6.8
				c6.6-0.3,14-0.8,22.3-1.5C164.4,418.6,172.6,417.7,180.3,416.7z"/>
			<path class="st2" d="M180.7,370.6l-0.3,7.8c-0.9,0-4.5,1.6-10.6,5c-5.9,3.3-10,5.7-12.1,7.3l0,0.4c1.9,1.5,5.6,3.9,11.2,7.2
				c5.9,3.4,9.4,5.2,10.5,5.2l-0.3,7.6c-0.7,0-4.8-2.7-12.2-8.1c-7.3-5.3-11.5-8.7-12.6-9.9l-0.4,0c-1.5,1.2-5.3,3.8-11.4,7.6
				c-6.3,3.9-9.7,5.9-10.4,5.8l0.3-7.8c0.7,0,3.6-1.3,8.6-4c4.9-2.6,8.1-4.6,9.6-5.7l0-0.4c-1.4-1.3-4.5-3.4-9.2-6.2
				c-4.7-2.9-7.4-4.3-8.1-4.4l0.3-7.6c0.7,0,3.8,2.4,9.5,7c5.4,4.5,8.9,7.5,10.4,9.1l0.4,0c2.1-1.7,6.8-4.8,14.1-9.2
				C175.5,372.8,179.7,370.5,180.7,370.6z"/>
		</g>
		<g>
			<path class="st2" d="M176.1,547.6c1.6-1.2,9.7-3.6,24.2-7.1c14.5-3.5,22.6-5.9,24.3-7.2l2.9,3.7c-1.5,1.1-5.9,8.2-13.3,21.1
				c-7.4,12.9-11.9,20-13.5,21.3l-4.2-5.4c1.5-1.1,5.5-7,11.9-17.5c6.4-10.5,10.3-16.3,11.6-17.3l-0.2-0.3c-1.5,1.1-8,3.4-19.7,6.8
				c-11.6,3.4-18.3,5.7-20,7L176.1,547.6z"/>
			<path class="st2" d="M207.7,507.6l3.5,5.9c-6.9,3.7-14.1,7.8-21.5,12.3c-7.3,4.4-13.6,8.4-18.9,12l-3.5-5.9
				c5.8-3.1,12.3-6.8,19.4-11.1C194.2,516.3,201.2,511.9,207.7,507.6z"/>
			<path class="st2" d="M199,490.3l2.9,6.2c-7.2,3-14.8,6.3-22.6,10c-7.7,3.6-14.4,7-20,10l-2.9-6.2c6.1-2.5,12.9-5.5,20.5-9
				C184.7,497.5,192.1,493.9,199,490.3z"/>
			<path class="st2" d="M191.8,472.3l2.4,6.5c-7.5,2.3-15.3,5-23.4,8c-8,2.9-15,5.7-20.8,8.2l-2.4-6.5c6.3-1.9,13.4-4.3,21.2-7.2
				C176.9,478.2,184.6,475.2,191.8,472.3z"/>
		</g>
		<g>
			<path class="st2" d="M269.5,634.2c0.8-1.8,6.9-7.6,18.2-17.5c11.3-9.8,17.3-15.7,18.2-17.6l4.3,2c-0.8,1.7-1.5,10-2,24.9
				c-0.6,14.9-1.3,23.3-2.1,25.1l-6.2-2.9c0.8-1.7,1.6-8.7,2.5-21c0.9-12.3,1.6-19.2,2.3-20.7l-0.3-0.2c-0.8,1.7-5.6,6.7-14.3,15.1
				c-8.8,8.3-13.6,13.5-14.5,15.5L269.5,634.2z"/>
			<path class="st2" d="M279,584.2l5.8,3.7c-4.5,6.4-9.1,13.3-13.7,20.6c-4.6,7.2-8.4,13.6-11.5,19.2l-5.8-3.7
				c3.8-5.4,7.9-11.6,12.4-18.6C270.9,598,275.2,590.9,279,584.2z"/>
			<path class="st2" d="M263.3,572.9l5.5,4.2c-5,6-10.2,12.4-15.4,19.3c-5.2,6.8-9.6,12.8-13.1,18.1l-5.5-4.2
				c4.3-5,8.9-10.8,14-17.5C254,585.9,258.9,579.2,263.3,572.9z"/>
		</g>
		<g>
			<path class="st2" d="M392.3,668c-0.1-2,2.6-10,8-23.9c5.5-13.9,8.1-21.9,8-24l4.7-0.2c0.1,1.9,3.3,9.5,9.7,23
				c6.4,13.5,9.6,21.2,9.7,23.3l-6.9,0.3c-0.1-1.9-2.6-8.5-7.5-19.8c-4.9-11.3-7.4-17.8-7.5-19.4l-0.4,0c0.1,1.9-1.8,8.5-5.7,20
				c-3.9,11.4-5.8,18.3-5.7,20.4L392.3,668z"/>
			<path class="st2" d="M377.7,619.2l6.8,0.6c-1,7.8-1.9,16-2.6,24.6c-0.7,8.5-1.2,15.9-1.4,22.3l-6.8-0.6
				c0.9-6.5,1.7-13.9,2.4-22.2C376.8,635.2,377.4,627,377.7,619.2z"/>
		</g>
		<g>
			<path class="st2" d="M517.6,641.3c-1-1.7-2.4-10-4.2-24.9c-1.8-14.9-3.2-23.2-4.3-24.9l4-2.4c1,1.6,7.4,6.8,19.4,15.6
				c12,8.8,18.5,14.1,19.6,15.9l-5.9,3.5c-1-1.6-6.3-6.2-16-13.9c-9.7-7.6-15-12.1-15.8-13.6l-0.3,0.2c1,1.6,2.4,8.4,4.4,20.3
				c2,11.9,3.5,18.8,4.7,20.7L517.6,641.3z"/>
		</g>
		<g>
			<path class="st2" d="M598.6,495.5l2.9-6.2c6.9,3.6,14.3,7.2,22.2,10.9c7.7,3.6,14.6,6.6,20.5,8.9l-2.9,6.2
				c-5.8-3.1-12.5-6.4-20.1-9.9C613.3,501.8,605.7,498.5,598.6,495.5z"/>
			<path class="st2" d="M615.1,560.2c-1.7-1.1-6.7-7.8-15-20.3c-8.3-12.5-13.3-19.2-15-20.3l2.5-4c1.6,1,9.7,2.7,24.4,5.2
				c14.7,2.5,22.9,4.3,24.6,5.4l-3.7,5.8c-1.6-1-8.4-2.7-20.5-5.2s-18.8-4.1-20.2-5l-0.2,0.3c1.6,1,5.9,6.4,13.1,16.2
				c7.1,9.8,11.6,15.2,13.5,16.4L615.1,560.2z"/>
		</g>
		<g>
			<path class="st2" d="M619.7,383.5l-0.6-6.8c7.8-0.3,16-0.9,24.7-1.7c8.5-0.8,15.9-1.6,22.2-2.5l0.6,6.8c-6.6,0.3-14,0.7-22.3,1.5
				C635.6,381.6,627.4,382.5,619.7,383.5z"/>
			<path class="st2" d="M620.4,402.9l-0.1-6.9c7.8,0.2,16.1,0.3,24.7,0.1c8.5-0.1,16-0.4,22.3-0.9l0.1,6.9c-6.6-0.2-14-0.3-22.4-0.1
				C636.4,402.1,628.1,402.4,620.4,402.9z"/>
			<path class="st2" d="M619.2,422.3l0.6-6.8c7.8,1,16,1.9,24.6,2.6c8.5,0.7,15.9,1.2,22.3,1.3l-0.6,6.8c-6.5-0.9-13.9-1.7-22.2-2.4
				C635.2,423.1,627,422.6,619.2,422.3z"/>
		</g>
		<g>
			<path class="st2" d="M587.3,284l-3.7-5.8c6.8-3.9,13.8-8.2,21.1-12.9c7.2-4.6,13.4-8.8,18.5-12.5l3.7,5.8
				c-5.7,3.3-12.1,7.1-19.1,11.6C600.5,274.9,593.7,279.5,587.3,284z"/>
			<path class="st2" d="M596.8,300.9l-3.2-6.1c7.1-3.3,14.5-7,22.2-11c7.6-4,14.1-7.6,19.5-10.9l3.2,6.1c-6,2.8-12.7,6.1-20,9.9
				C610.8,293,603.5,297,596.8,300.9z"/>
		</g>
		<g>
			<path class="st2" d="M512.7,210.6l-6-3.3c4.1-6.7,8.3-13.8,12.5-21.4c4.1-7.5,7.6-14.1,10.4-19.8l6,3.3
				c-3.5,5.6-7.3,12-11.3,19.3C520,196.4,516.2,203.7,512.7,210.6z"/>
		</g>
	</g>
</g>
<g id="star">
	<g>
		<g>
			<polygon class="st2" points="420.7,379.3 437.3,382 486.4,313.6 418,362.7 			"/>
			<polygon class="st2" points="379.3,379.3 382,362.7 313.6,313.6 362.7,382 			"/>
			<polygon class="st2" points="379.3,420.7 362.7,418 313.6,486.4 382,437.3 			"/>
			<polygon class="st2" points="420.7,420.7 418,437.3 486.4,486.4 437.3,418 			"/>
		</g>
		<polygon class="st2" points="400,277.9 417.3,382.7 522.1,400 417.3,417.3 400,522.1 382.7,417.3 277.9,400 382.7,382.7 		"/>
		<polygon class="st3" points="461.3,420.1 583.2,400 460.2,379.7 522.1,329 439.3,360.2 470.5,277.4 420.1,338.8 400,216.8 
			379.9,338.8 329.5,277.4 360.7,360.2 277.9,329 339.8,379.7 216.8,400 338.7,420.1 277.9,469.9 360.7,438.7 329.5,521.5 
			379.7,460.3 400,583.2 420.3,460.3 470.5,521.5 439.3,438.7 522.1,469.9 		"/>
	</g>
</g>
<g id="orbit">
	<path class="st4" d="M702.1,399.9c0-25.4,19.8-46.2,44.7-47.9c-21.2-155-143.9-277.7-298.9-298.9c-1.7,25-22.5,44.7-47.9,44.7
		s-46.2-19.8-47.9-44.7C196.9,74.4,74,197.6,53.2,353c25.1,1.6,44.9,22.4,44.9,47.9c0,25.4-19.7,46.1-44.6,47.9
		C75.1,603.7,198,726,353.2,746.8c1.6-25.1,22.4-44.9,47.9-44.9c25.4,0,46.1,19.7,47.9,44.6C603.5,725,725.7,602.5,746.8,447.8
		C721.8,446.1,702.1,425.3,702.1,399.9z"/>
	<g>
		<circle class="st5" cx="400" cy="50" r="40"/>
		<polygon class="st2" points="400,20 404.2,45.8 430,50 404.2,54.2 400,80 395.8,54.2 370,50 395.8,45.8 		"/>
	</g>
	<g>
		<circle class="st5" cx="50" cy="401" r="40"/>
		<polygon class="st2" points="50,371 54.2,396.8 80,401 54.2,405.2 50,431 45.8,405.2 20,401 45.8,396.8 		"/>
	</g>
	<g>
		<circle class="st5" cx="401" cy="750" r="40"/>
		<polygon class="st2" points="401,720 405.2,745.8 431,750 405.2,754.2 401,780 396.8,754.2 371,750 396.8,745.8 		"/>
	</g>
	<g>
		<circle class="st5" cx="750" cy="400" r="40"/>
		<polygon class="st2" points="750,370 754.2,395.8 780,400 754.2,404.2 750,430 745.8,404.2 720,400 745.8,395.8 		"/>
	</g>
</g>
</svg>
