<svg height="512pt" viewBox="0 -76 512.00004 512" width="512pt" xmlns="http://www.w3.org/2000/svg"><path d="m0 227.5625h69.527344v75.851562h-69.527344zm0 0" fill="#6fbbc6"/><path d="m447.214844 227.5625h64.785156v75.851562h-64.785156zm0 0" fill="#6fbbc6"/><path d="m398.222656 360.300781h-79.585937c-21.359375.003907-41.308594-10.671875-53.15625-28.445312h-18.960938l-9.738281 9.738281c-11.980469 11.980469-28.230469 18.707031-45.171875 18.707031h-77.832031c-31.417969 0-56.886719-25.46875-56.886719-56.886719v-94.816406h398.21875v94.816406c0 31.417969-25.46875 56.886719-56.886719 56.886719zm0 0" fill="#d9d9d9"/><path d="m388.742188 322.375h-69.625c-10.058594 0-19.707032-3.996094-26.820313-11.109375l-17.332031-17.335937h-37.925782l-17.335937 17.335937c-7.109375 7.113281-16.761719 11.109375-26.820313 11.109375h-69.625c-15.707031 0-28.441406-12.734375-28.441406-28.445312v-85.332032h322.367188v85.335938c0 15.707031-12.734375 28.441406-28.441406 28.441406zm0 0" fill="#b9b9b9"/><path d="m455.109375 208.597656h-398.21875l37.925781-56.886718h104.296875l37.925781 28.441406h37.925782l37.925781-27.257813 104.292969-1.183593zm0 0" fill="#eaeae8"/><path d="m151.703125 75.855469c-5.234375 0-9.480469-4.242188-9.480469-9.480469v-56.886719c0-5.238281 4.246094-9.48437475 9.480469-9.48437475 5.238281 0 9.480469 4.24609375 9.480469 9.48437475v56.886719c0 5.238281-4.242188 9.480469-9.480469 9.480469zm0 0" fill="#ea6b65"/><path d="m256 9.488281h56.890625v56.886719h-56.890625zm0 0" fill="#f3af3e"/><path d="m208.59375 9.488281 47.40625 28.441407-47.40625 28.445312zm0 0" fill="#f7ba61"/><path d="m369.777344 75.855469c-5.234375.003906-9.484375-4.238281-9.488282-9.472657-.003906-4.085937 2.613282-7.714843 6.492188-9.003906l21.960938-7.320312v-31.089844c0-4.082031 2.609374-7.707031 6.484374-9l28.445313-9.480469c4.972656-1.65625 10.347656 1.035157 12.003906 6.011719 1.652344 4.972656-1.039062 10.347656-6.011719 12.003906l-21.960937 7.300782v31.089843c.003906 4.082031-2.609375 7.707031-6.484375 8.996094l-28.445312 9.484375c-.964844.320312-1.976563.484375-2.996094.480469zm0 0" fill="#aac16b"/><path d="m246.519531 94.820312h18.960938v18.960938h-18.960938zm0 0" fill="#b3e4e8"/><path d="m246.519531 132.746094h18.960938v18.960937h-18.960938zm0 0" fill="#b3e4e8"/><path d="m113.777344 75.855469c-1.71875.003906-3.410156-.464844-4.882813-1.355469l-47.40625-28.445312c-4.488281-2.695313-5.9375-8.523438-3.242187-13.011719.800781-1.328125 1.914062-2.4375 3.242187-3.238281l47.40625-28.445313c4.488281-2.695313 10.3125-1.242187 13.011719 3.246094.886719 1.472656 1.351562 3.160156 1.351562 4.882812v56.886719c0 5.238281-4.242187 9.480469-9.480468 9.480469zm0 0" fill="#ea6b65"/></svg>